<?xml version="1.0" encoding="UTF-8" standalone="no"?>
<!-- Created with Inkscape (http://www.inkscape.org/) -->
<svg
   xmlns:svg="http://www.w3.org/2000/svg"
   xmlns="http://www.w3.org/2000/svg"
   version="1.0"
   width="956.69287"
   height="729.56689"
   id="svg2">
  <defs
     id="defs4" />
  <g
     transform="translate(-2614.6034,1700.5365)"
     id="layer1">
    <g
       transform="translate(35.433036,35.422147)"
       id="g6742">
      <path
         d="M 3209.6416,-1367.3749 C 3195.0685,-1304.82 3139.08,-1258.1697 3072.0899,-1258.1697 C 2994.0067,-1258.1697 2930.6997,-1321.4767 2930.6997,-1399.5461 C 2930.6997,-1477.6294 2994.0067,-1540.9364 3072.0899,-1540.9364 C 3085.5035,-1540.9364 3098.447,-1538.9469 3110.7486,-1535.4519 L 3013.6093,-1700.5365 L 2722.9612,-1194.8953 L 3311.1522,-1194.8953 L 3209.6416,-1367.3749"
         id="path6529"
         style="fill:#000000;fill-opacity:1;fill-rule:nonzero;stroke:none" />
      <path
         d="M 3204.5182,-1335.5647 C 3282.6027,-1335.5647 3345.8934,-1398.8717 3345.8934,-1476.9399 C 3345.8934,-1555.0231 3282.6027,-1618.3301 3204.5182,-1618.3301 C 3126.4349,-1618.3301 3063.1279,-1555.0231 3063.1279,-1476.9399 C 3063.1279,-1398.8717 3126.4349,-1335.5647 3204.5182,-1335.5647"
         id="path6537"
         style="fill:#000000;fill-opacity:1;fill-rule:nonzero;stroke:none" />
      <path
         d="M 3442.5463,-1127.8111 C 3447.0116,-1118.5345 3447.7023,-1105.4494 3444.9431,-1094.7937 C 3417.7713,-1040.45 3350.5317,-1048.2223 3294.809,-1047.2044 L 3296.47,-1053.5188 C 3341.5208,-1053.5188 3394.7376,-1048.7087 3424.9958,-1084.8125 C 3433.2533,-1097.8964 3433.5993,-1117.1555 3426.03,-1130.2243 C 3399.8924,-1165.9997 3310.4628,-1160.8436 3310.4628,-1160.8436 L 3310.4628,-1069.3456 L 3294.7927,-1069.3456 L 3294.6373,-1168.4116 C 3348.981,-1167.0327 3411.2375,-1176.3106 3442.5463,-1127.8111"
         id="path6541"
         style="fill:#000000;fill-opacity:1;fill-rule:nonzero;stroke:none" />
      <path
         d="M 2753.9102,-1091.6923 C 2786.5816,-1092.7265 2827.1833,-1085.1585 2842.3055,-1117.1568 C 2844.028,-1124.7248 2842.3055,-1132.6388 2838.1837,-1138.4831 C 2819.9601,-1156.708 2793.4614,-1155.6737 2767.3237,-1154.9843 L 2767.2924,-1100.6393 L 2757.4516,-1100.6393 L 2757.3576,-1158.4317 C 2790.375,-1159.4659 2833.0289,-1164.6207 2849.8736,-1131.9493 C 2851.942,-1122.6563 2850.2183,-1112.6902 2844.7187,-1105.4506 C 2822.0122,-1084.1393 2786.9276,-1088.6059 2758.032,-1087.5717 C 2764.5821,-1073.4687 2776.099,-1057.8763 2784.0117,-1043.4285 C 2784.0117,-1043.4285 2769.1728,-1045.4819 2767.3237,-1043.5389 L 2741.5308,-1087.5717 L 2669.856,-1087.5717 L 2672.3946,-1091.3476 L 2739.2894,-1091.4102 C 2726.9113,-1112.3918 2711.9458,-1136.7594 2699.5664,-1157.7422 C 2675.8257,-1120.2431 2630.0854,-1043.3345 2630.0854,-1043.3345 C 2625.1337,-1045.4819 2614.6034,-1043.5389 2614.6034,-1043.5389 L 2688.8945,-1165.9997 C 2697.7951,-1164.7937 2701.0244,-1164.7937 2709.5326,-1165.9997 L 2753.9102,-1091.6923"
         id="path6545"
         style="fill:#000000;fill-opacity:1;fill-rule:nonzero;stroke:none" />
      <path
         d="M 3193.1568,-1156.7067 L 3193.8462,-1150.8624 C 3175.2779,-1160.1541 3146.0375,-1162.2075 3128.8469,-1148.448 C 3121.2789,-1142.6037 3117.142,-1135.0344 3116.4525,-1126.1025 C 3116.4525,-1117.5002 3118.1762,-1109.5875 3125.3994,-1104.0867 C 3143.2946,-1086.5362 3174.2436,-1088.6047 3194.8805,-1098.2261 L 3194.6297,-1092.7729 C 3170.1995,-1083.8247 3135.7254,-1083.7933 3115.4183,-1103.0525 C 3110.2622,-1108.8968 3107.5193,-1115.7765 3107.1758,-1123.6905 C 3106.4851,-1139.1713 3119.5539,-1150.5164 3131.9345,-1156.7067 C 3150.5029,-1164.2747 3174.9319,-1164.2747 3193.1568,-1156.7067"
         id="path6549"
         style="fill:#000000;fill-opacity:1;fill-rule:nonzero;stroke:none" />
      <path
         d="M 3279.8435,-1160.7345 L 3279.8435,-1156.7694 L 3214.4843,-1156.708 L 3214.5157,-1129.5048 L 3277.4303,-1129.3318 L 3277.4303,-1125.4143 L 3214.453,-1125.4143 L 3214.547,-1093.0713 L 3279.8435,-1093.0713 L 3279.8435,-1088.9507 L 3205.5524,-1088.9507 L 3205.5524,-1160.8449 L 3279.8435,-1160.7345"
         id="path6553"
         style="fill:#000000;fill-opacity:1;fill-rule:nonzero;stroke:none" />
      <path
         d="M 2849.8736,-1159.1199 L 2887.2936,-1093.7131 L 2925.6853,-1159.6376 C 2925.6853,-1159.6376 2929.1164,-1158.3364 2935.5261,-1159.3706 L 2893.5617,-1088.2599 C 2894.9406,-1089.5449 2879.678,-1089.3418 2881.1823,-1088.2599 L 2839.9074,-1159.1976 C 2844.6398,-1158.1333 2849.8736,-1159.1199 2849.8736,-1159.1199"
         id="path6557"
         style="fill:#000000;fill-opacity:1;fill-rule:nonzero;stroke:none" />
      <path
         d="M 3091.6938,-1160.1855 L 3091.6938,-1095.8279 L 3022.2128,-1159.9498 C 3022.2128,-1159.9498 3018.9848,-1158.1321 3007.4052,-1159.7618 L 3007.4203,-1094.1042 L 2966.8348,-1159.7618 C 2963.0903,-1158.7752 2960.301,-1158.9945 2955.4747,-1159.7618 L 2912.476,-1088.2599 C 2921.1723,-1089.5449 2923.9616,-1088.2599 2923.9616,-1088.2599 L 2939.4436,-1114.9141 L 2986.0939,-1114.7423 L 3001.576,-1088.2599 C 3007.1545,-1088.9018 3011.0244,-1089.1212 3018.0759,-1088.0719 L 3018.0759,-1154.2935 L 3088.8581,-1087.9302 C 3096.8022,-1089.5449 3101.6599,-1087.8676 3101.6599,-1087.8676 L 3101.6599,-1160.1541 C 3101.6599,-1160.1541 3099.169,-1158.9945 3091.6938,-1160.1855 z M 2943.0953,-1120.5866 L 2962.0084,-1153.6191 L 2982.6465,-1120.5866 L 2943.0953,-1120.5866"
         id="path6561"
         style="fill:#000000;fill-opacity:1;fill-rule:nonzero;stroke:none" />
      <path
         d="M 3469.0274,-1073.1377 L 3468.9497,-1069.6276 C 3468.9497,-1069.6276 3458.9196,-1069.7216 3459.0462,-1069.6903 L 3459.2016,-1043.8823 L 3455.6138,-1043.8823 L 3455.6138,-1069.6903 L 3445.6314,-1069.659 L 3445.6314,-1073.1377 L 3469.0274,-1073.1377"
         id="path6565"
         style="fill:#000000;fill-opacity:1;fill-rule:nonzero;stroke:none" />
      <path
         d="M 3478.1787,-1073.0437 L 3487.9405,-1048.5671 L 3496.7784,-1073.0437 L 3500.4302,-1073.0437 L 3500.4302,-1044.1481 L 3497.1081,-1044.1481 L 3496.8887,-1065.4744 L 3489.6655,-1044.1481 L 3485.5436,-1044.1481 L 3477.9744,-1065.4744 L 3477.9744,-1044.1481 L 3474.5269,-1044.1481 L 3474.5269,-1073.0437 L 3478.1787,-1073.0437"
         id="path6569"
         style="fill:#000000;fill-opacity:1;fill-rule:nonzero;stroke:none" />
      <path
         d="M 3142.5274,-1071.666 L 3142.5274,-1069.0647 C 3136.213,-1072.0421 3126.9201,-1073.7181 3120.4164,-1069.9899 C 3118.3805,-1068.8767 3116.7032,-1066.4635 3117.8164,-1064.0503 C 3123.7698,-1058.8479 3132.8596,-1060.3372 3140.3023,-1057.7359 C 3141.9633,-1056.8108 3143.4526,-1055.5108 3144.1885,-1053.6454 C 3145.3167,-1049.931 3142.7155,-1047.158 3139.9262,-1045.67 C 3132.6867,-1042.3166 3121.9057,-1041.7675 3114.4781,-1044.9178 L 3114.4781,-1047.7058 C 3121.1685,-1043.9927 3131.1986,-1043.4436 3137.8728,-1047.7058 C 3140.474,-1049.1951 3141.4155,-1052.5335 3139.5501,-1054.5856 C 3131.9345,-1060.1479 3120.0566,-1055.6976 3113.7422,-1063.6905 C 3112.6139,-1067.2157 3115.402,-1069.8169 3117.8164,-1071.3062 C 3125.244,-1074.4552 3135.0998,-1074.4552 3142.5274,-1071.666"
         id="path6573"
         style="fill:#000000;fill-opacity:1;fill-rule:nonzero;stroke:none" />
      <path
         d="M 3067.9217,-1071.666 L 3067.9217,-1069.0647 C 3061.6073,-1072.0421 3052.3143,-1073.7181 3045.8269,-1069.9899 C 3043.7735,-1068.8767 3042.1125,-1066.4635 3043.2257,-1064.0503 C 3049.164,-1058.8479 3058.2689,-1060.3372 3065.6966,-1057.7359 C 3067.3739,-1056.8108 3068.8456,-1055.5108 3069.5978,-1053.6454 C 3070.711,-1049.931 3068.1097,-1047.158 3065.3205,-1045.67 C 3058.0809,-1042.3166 3047.2999,-1041.7675 3039.8723,-1044.9178 L 3039.8723,-1047.7058 C 3046.5628,-1043.9927 3056.5916,-1043.4436 3063.2834,-1047.7058 C 3065.8846,-1049.1951 3066.8085,-1052.5335 3064.9594,-1054.5856 C 3057.3438,-1060.1479 3045.4508,-1055.6976 3039.1364,-1063.6905 C 3038.0232,-1067.2157 3040.8125,-1069.8169 3043.2257,-1071.3062 C 3050.6533,-1074.4552 3060.4941,-1074.4552 3067.9217,-1071.666"
         id="path6577"
         style="fill:#000000;fill-opacity:1;fill-rule:nonzero;stroke:none" />
      <path
         d="M 3219.06,-1071.1169 L 3192.8596,-1071.1169 L 3192.7819,-1059.5211 L 3217.5707,-1059.5374 C 3217.6346,-1056.8421 3217.6346,-1057.1392 3217.6346,-1057.1392 L 3192.9687,-1057.2809 L 3192.985,-1044.4151 L 3218.7629,-1044.4628 L 3218.7629,-1042.4407 L 3189.1778,-1042.4407 L 3189.0512,-1073.3107 L 3219.06,-1073.3107 L 3219.06,-1071.1169"
         id="path6581"
         style="fill:#000000;fill-opacity:1;fill-rule:nonzero;stroke:none" />
      <path
         d="M 3252.6716,-1046.797 L 3269.5802,-1073.2957 L 3274.5946,-1073.2957 L 3278.6839,-1042.2063 L 3274.9707,-1041.8139 L 3271.6173,-1070.114 L 3254.3489,-1042.2063 L 3251.9345,-1042.2063 L 3234.8554,-1070.114 L 3231.8781,-1041.8139 L 3227.7876,-1041.8139 L 3231.8781,-1073.2957 L 3236.8925,-1073.2957 L 3252.6716,-1046.797"
         id="path6585"
         style="fill:#000000;fill-opacity:1;fill-rule:nonzero;stroke:none" />
      <path
         d="M 3109.8385,-1072.7779 L 3093.8863,-1053.9588 L 3093.949,-1041.9869 L 3089.8748,-1041.9079 L 3089.7808,-1054.0052 L 3073.6093,-1072.9973 L 3078.0746,-1072.7779 C 3082.3369,-1067.2157 3086.8035,-1061.8252 3092.0059,-1056.6227 L 3105.748,-1072.966 L 3109.8385,-1072.7779"
         id="path6589"
         style="fill:#000000;fill-opacity:1;fill-rule:nonzero;stroke:none" />
      <path
         d="M 2966.3008,-1073.0123 L 2966.3008,-1070.7245 L 2951.6336,-1070.7559 L 2951.6336,-1042.2201 L 2947.5431,-1042.2201 L 2947.5431,-1070.7559 L 2932.5011,-1070.6455 L 2932.4848,-1073.0901 L 2966.3008,-1073.0123"
         id="path6593"
         style="fill:#000000;fill-opacity:1;fill-rule:nonzero;stroke:none" />
      <path
         d="M 3183.4413,-1073.0123 L 3183.4413,-1070.7245 L 3168.7591,-1070.7559 L 3168.7591,-1042.2201 L 3164.6836,-1042.2201 L 3164.6836,-1070.7559 L 3149.6253,-1070.6455 L 3149.6103,-1073.0901 L 3183.4413,-1073.0123"
         id="path6597"
         style="fill:#000000;fill-opacity:1;fill-rule:nonzero;stroke:none" />
      <path
         d="M 2843.1505,-1059.6928 L 2871.3102,-1059.8808 L 2871.2939,-1073.0123 L 2874.4279,-1073.0123 L 2874.3176,-1042.0007 L 2871.3879,-1042.017 L 2871.3879,-1057.3887 L 2843.1191,-1057.3573 L 2842.9624,-1042.0947 L 2839.6253,-1042.0797 L 2839.515,-1073.0123 L 2843.1505,-1073.0123 L 2843.1505,-1059.6928"
         id="path6601"
         style="fill:#000000;fill-opacity:1;fill-rule:nonzero;stroke:none" />
      <path
         d="M 3012.184,-1064.0491 C 3008.8456,-1069.2515 3003.2683,-1071.3037 2997.6898,-1072.7767 C 2988.2238,-1073.7169 2978.3843,-1073.342 2971.6925,-1066.2742 C 2968.9033,-1063.5 2967.4152,-1059.9586 2967.9794,-1055.6963 C 2969.0913,-1048.27 2977.2711,-1044.7273 2983.3987,-1042.8782 C 2994.5395,-1041.3902 3007.3576,-1042.8782 3013.1091,-1053.2831 C 3014.2211,-1056.6215 3014.0481,-1061.0881 3012.184,-1064.0491 z M 3008.0934,-1051.231 C 3002.3432,-1043.9914 2992.6741,-1043.4436 2984.1346,-1044.9166 C 2979.6843,-1046.4046 2974.4818,-1048.6297 2972.6177,-1053.6442 C 2971.5045,-1056.6215 2972.0686,-1060.5227 2973.3686,-1063.3132 C 2977.083,-1069.0635 2983.5867,-1070.9276 2990.0729,-1071.3037 C 2997.5168,-1071.1169 3005.8695,-1069.6276 3009.2066,-1062.012 C 3010.3198,-1058.6736 3009.9588,-1054.2083 3008.0934,-1051.231"
         id="path6605"
         style="fill:#000000;fill-opacity:1;fill-rule:nonzero;stroke:none" />
      <path
         d="M 2927.8628,-1065.7264 C 2924.3213,-1069.6289 2919.683,-1071.3049 2914.8566,-1072.4181 C 2903.9039,-1074.0792 2892.9349,-1072.0421 2886.4312,-1062.9371 C 2885.1312,-1060.1479 2884.5821,-1056.2466 2885.6953,-1053.2844 C 2891.0858,-1043.0675 2902.6027,-1041.0141 2913.5566,-1042.3153 C 2920.4201,-1043.6153 2928.976,-1047.1568 2930.825,-1054.9454 C 2931.3892,-1058.6749 2930.464,-1062.7491 2927.8628,-1065.7264 z M 2922.8333,-1048.631 C 2914.8566,-1042.6914 2902.9637,-1042.5034 2894.4229,-1047.7058 C 2891.6336,-1050.119 2889.4085,-1052.7203 2889.4085,-1056.2466 C 2888.6726,-1060.3359 2890.5204,-1063.5013 2892.7468,-1066.1025 C 2899.0612,-1071.1169 2908.1661,-1072.0421 2916.1579,-1069.9887 C 2920.2471,-1068.5157 2925.2615,-1066.1025 2926.5615,-1061.2598 C 2927.2987,-1056.6227 2927.1106,-1051.2322 2922.8333,-1048.631"
         id="path6609"
         style="fill:#000000;fill-opacity:1;fill-rule:nonzero;stroke:none" />
      <path
         d="M 2822.4823,-1073.8585 L 2799.8861,-1073.8585 L 2799.8861,-1042.1273 L 2803.7873,-1042.205 L 2803.7873,-1054.0829 L 2822.0749,-1054.0829 C 2822.0749,-1054.0829 2831.2726,-1055.1485 2831.2726,-1064.1431 C 2831.2726,-1072.9973 2822.4823,-1073.8585 2822.4823,-1073.8585 z M 2819.1126,-1056.6528 L 2804.1483,-1056.6528 L 2804.1646,-1071.0843 L 2819.0512,-1071.0843 C 2819.0512,-1071.0843 2827.6534,-1071.2736 2827.6534,-1063.9714 C 2827.6534,-1056.6528 2819.1126,-1056.6528 2819.1126,-1056.6528"
         id="path6613"
         style="fill:#000000;fill-opacity:1;fill-rule:nonzero;stroke:none" />
    </g>
  </g>
</svg>
