<?xml version="1.0" encoding="UTF-8" standalone="no"?>
<!-- Created with Inkscape (http://www.inkscape.org/) -->
<svg
   xmlns:svg="http://www.w3.org/2000/svg"
   xmlns="http://www.w3.org/2000/svg"
   version="1.0"
   width="984.33069"
   height="425.19684"
   id="svg2720">
  <defs
     id="defs2722" />
  <g
     transform="translate(-2750.7151,971.12789)"
     id="layer1">
    <g
       transform="translate(35.376282,35.43307)"
       id="g3319">
      <path
         d="M 2987.231,-616.79774 L 3086.3413,-616.79774 L 3086.3413,-965.15139 L 2987.231,-965.15139 L 2987.231,-616.79774 z"
         id="path3050"
         style="fill:#000000;fill-opacity:1;fill-rule:nonzero;stroke:none" />
      <path
         d="M 3129.8924,-616.79774 L 3229.0033,-616.79774 L 3229.0033,-845.51031 L 3129.8924,-845.51031 L 3129.8924,-616.79774 z"
         id="path3052"
         style="fill:#000000;fill-opacity:1;fill-rule:nonzero;stroke:none" />
      <g
         transform="matrix(55.33815,0,0,-55.33815,2849.8257,-748.00446)"
         id="g3054"
         style="fill:#000000">
        <path
           d="M 0,0 L 1.926,0.001 L 1.926,1.774 L 0.001,1.774 L 0,3.924 L -1.791,3.924 L -1.791,-2.371 L 0,-2.371 L 0,0"
           id="path3056"
           style="fill:#000000;fill-opacity:1;fill-rule:nonzero;stroke:none" />
      </g>
      <g
         transform="matrix(55.33815,0,0,-55.33815,3179.0331,-865.26601)"
         id="g3058"
         style="fill:#000000">
        <path
           d="M 0,0 C 0.523,0 0.947,0.428 0.947,0.956 C 0.947,1.485 0.523,1.913 0,1.913 C -0.523,1.913 -0.947,1.485 -0.947,0.956 C -0.947,0.428 -0.523,0 0,0"
           id="path3060"
           style="fill:#000000;fill-opacity:1;fill-rule:nonzero;stroke:none" />
      </g>
      <g
         transform="matrix(55.33815,0,0,-55.33815,3491.7489,-814.85243)"
         id="g3062"
         style="fill:#000000">
        <path
           d="M 0,0 C 0.438,0 0.792,0.359 0.792,0.8 C 0.792,1.242 0.438,1.6 0,1.6 C -0.437,1.6 -0.792,1.242 -0.792,0.8 C -0.792,0.359 -0.437,0 0,0 z M 0.005,-2.447 C 0.501,-2.447 0.902,-2.041 0.902,-1.541 C 0.902,-1.04 0.501,-0.634 0.005,-0.634 C -0.491,-0.634 -0.893,-1.04 -0.893,-1.541 C -0.893,-2.041 -0.491,-2.447 0.005,-2.447 z M -0.962,-0.235 C -1.47,-0.547 -1.682,-0.879 -1.682,-1.543 C -1.682,-2.484 -0.927,-3.182 0.005,-3.182 C 0.937,-3.182 1.692,-2.484 1.692,-1.543 C 1.692,-0.879 1.477,-0.546 0.969,-0.233 C 1.318,-0.024 1.542,0.32 1.542,0.8 C 1.542,1.645 0.852,2.33 0,2.33 C -0.851,2.33 -1.542,1.645 -1.542,0.8 C -1.542,0.319 -1.313,-0.026 -0.962,-0.235 z M -3.115,2.715 L 3.118,2.715 L 3.118,-3.579 L -3.115,-3.579 L -3.115,2.715 z"
           id="path3064"
           style="fill:#000000;fill-opacity:1;fill-rule:nonzero;stroke:none" />
      </g>
    </g>
  </g>
</svg>
