<?xml version="1.0" encoding="UTF-8" standalone="no"?>
<!-- Created with Inkscape (http://www.inkscape.org/) -->
<svg
   xmlns:svg="http://www.w3.org/2000/svg"
   xmlns="http://www.w3.org/2000/svg"
   version="1.0"
   width="881.92914"
   height="389.76376"
   id="svg2720">
  <defs
     id="defs2722" />
  <g
     transform="translate(-5467.6293,3363.1018)"
     id="layer1">
    <g
       transform="translate(17.64759,17.716536)"
       id="g3415">
      <g
         transform="matrix(50.117437,0,0,-50.117437,6125.5711,-3363.1018)"
         id="g3102">
        <path
           d="M 0,0 C 0,0 0.666,-0.179 1.16,-0.824 C 1.638,-1.446 2.082,-2.458 2.121,-2.92 L 2.927,-0.935 C 2.927,-0.935 3.239,-0.145 3.765,0 L 0,0"
           id="path3104"
           style="fill:#000000;fill-opacity:1;fill-rule:nonzero;stroke:none" />
      </g>
      <g
         transform="matrix(50.117437,0,0,-50.117437,6011.1531,-3195.8595)"
         id="g3106">
        <path
           d="M 0,0 C 0,-2.131 -0.524,-2.63 -0.72,-2.836 C -0.811,-2.932 -1.038,-3.144 -1.459,-3.074 C -1.881,-3.003 -1.978,-2.687 -1.991,-2.408 C -2.003,-2.142 -1.999,-1.687 -1.999,-1.687 L -1.999,0 L -3.515,0 L -3.515,-2.461 C -3.515,-3.078 -3.979,-3.337 -3.979,-3.337 L -0.464,-3.337 C -0.464,-3.337 -0.314,-3.336 -0.262,-3.334 C -0.2,-3.331 0.139,-3.313 0.325,-3.264 C 1.615,-2.917 1.566,-0.824 1.566,-0.824 C 1.756,-1.339 2.099,-1.998 2.099,-1.998 L 2.949,-3.733 L 4.065,-0.673 C 3.919,-0.906 3.767,-1.172 3.587,-1.172 C 3.451,-1.172 3.346,-1.04 3.242,-0.87 C 3.146,-0.714 1.738,1.75 1.399,2.338 C 0.883,3.232 0.38,3.286 -0.036,3.321 C -0.162,3.331 -0.595,3.337 -0.595,3.337 L -3.979,3.337 C -3.979,3.337 -3.515,3.114 -3.515,2.493 L -3.515,-0.002 L -1.999,-0.002 L -1.999,1.686 C -1.999,1.686 -2.003,2.141 -1.991,2.407 C -1.978,2.686 -1.881,3.002 -1.459,3.073 C -1.038,3.144 -0.811,2.932 -0.72,2.836 C -0.524,2.629 0,2.13 0,0"
           id="path3108"
           style="fill:#000000;fill-opacity:1;fill-rule:nonzero;stroke:none" />
      </g>
      <g
         transform="matrix(50.117437,0,0,-50.117437,5521.3552,-3226.6319)"
         id="g3110">
        <path
           d="M 0,0 L -0.723,2.165 L -0.723,0 L -1.072,0 L -1.072,2.667 L -0.589,2.667 L 0.174,0.398 L 0.937,2.667 L 1.42,2.667 L 1.42,0 L 1.072,0 L 1.072,2.165 L 0.349,0 L 0,0"
           id="path3112"
           style="fill:#000000;fill-opacity:1;fill-rule:nonzero;stroke:none" />
      </g>
      <path
         d="M 5617.5811,-3322.8573 L 5632.8667,-3322.8573 L 5632.8667,-3226.5815 L 5617.5811,-3226.5815 L 5617.5811,-3322.8573 z M 5617.5811,-3360.2946 L 5632.8667,-3360.2946 L 5632.8667,-3341.25 L 5617.5811,-3341.25 L 5617.5811,-3360.2946 z"
         id="path3114"
         style="fill:#000000;fill-opacity:1;fill-rule:nonzero;stroke:none" />
      <g
         transform="matrix(50.117437,0,0,-50.117437,5674.0131,-3322.8573)"
         id="g3116">
        <path
           d="M 0,0 L 0,-0.241 L 0.008,-0.241 C 0.066,-0.15 0.146,-0.069 0.218,-0.033 C 0.309,0.037 0.458,0.059 0.596,0.055 C 0.734,0.051 0.861,0.026 0.909,0.004 C 1.003,-0.047 1.17,-0.142 1.21,-0.428 L 1.21,-1.92 L 0.905,-1.92 L 0.905,-0.585 C 0.909,-0.347 0.734,-0.223 0.523,-0.223 C 0.269,-0.223 -0.007,-0.384 0,-0.9 L 0,-1.92 L -0.305,-1.92 L -0.305,0 L 0,0"
           id="path3118"
           style="fill:#000000;fill-opacity:1;fill-rule:nonzero;stroke:none" />
      </g>
      <path
         d="M 5759.2125,-3322.8573 L 5774.4987,-3322.8573 L 5774.4987,-3226.5815 L 5759.2125,-3226.5815 L 5759.2125,-3322.8573 z M 5759.2125,-3360.2946 L 5774.4987,-3360.2946 L 5774.4987,-3341.25 L 5759.2125,-3341.25 L 5759.2125,-3360.2946 z"
         id="path3120"
         style="fill:#000000;fill-opacity:1;fill-rule:nonzero;stroke:none" />
    </g>
  </g>
</svg>
