<?xml version="1.0" encoding="UTF-8" standalone="no"?>
<!-- Created with Inkscape (http://www.inkscape.org/) -->
<svg
   xmlns:svg="http://www.w3.org/2000/svg"
   xmlns="http://www.w3.org/2000/svg"
   version="1.0"
   width="1116.1417"
   height="389.76376"
   id="svg2720">
  <defs
     id="defs2722" />
  <g
     transform="translate(-4081.2205,2067.1728)"
     id="layer1">
    <path
       d="M 4098.9639,-2049.4563 L 5179.6188,-2049.4563 L 5179.6188,-1695.1256 L 4098.9639,-1695.1256 L 4098.9639,-2049.4563 z M 4110.7809,-1708.9127 L 4791.8681,-1708.9127 L 4791.8681,-2037.6387 L 4110.7809,-2037.6387 L 4110.7809,-1708.9127 z M 4868.6183,-1781.7852 C 4868.6183,-1754.2117 4892.2522,-1730.5771 4919.8257,-1730.5771 L 5065.4476,-1730.5771 C 5094.9906,-1730.5771 5118.6252,-1754.2117 5118.6252,-1781.7852 L 5118.6252,-1834.9009 L 5051.6611,-1834.9009 L 5051.6611,-1821.1138 C 5051.6611,-1803.3884 5035.9665,-1787.6318 5018.2404,-1787.6318 L 4967.0329,-1787.6318 C 4949.3068,-1787.6318 4935.5817,-1803.3884 4935.5817,-1821.1138 L 4935.5817,-1923.4681 C 4935.5817,-1943.163 4949.3068,-1956.9501 4967.0329,-1956.9501 L 5018.2404,-1956.9501 C 5035.9665,-1956.9501 5051.6611,-1943.163 5051.6611,-1923.4681 L 5051.6611,-1909.681 L 5118.6252,-1909.681 L 5118.6252,-1962.8586 C 5118.6252,-1992.4017 5094.9906,-2015.9743 5065.4476,-2015.9743 L 4919.8257,-2015.9743 C 4892.2522,-2015.9743 4868.6183,-1992.4017 4868.6183,-1962.8586 L 4868.6183,-1781.7852 z M 4138.3544,-2014.0048 L 4201.3175,-2014.0048 L 4248.586,-1809.2969 L 4289.8847,-1990.4315 L 4283.9763,-2014.0048 L 4323.3668,-2014.0048 L 4264.2807,-1764.0591 L 4270.1891,-1734.5161 L 4207.226,-1734.5161 L 4138.3544,-2014.0048 z M 4348.9708,-2014.0048 L 4411.9339,-2014.0048 L 4411.9339,-1834.9009 L 4474.959,-1834.9009 L 4474.959,-2014.0048 L 4535.9527,-2014.0048 L 4535.9527,-1734.5161 L 4474.959,-1734.5161 L 4474.959,-1821.1138 L 4449.355,-1813.2358 L 4411.9339,-1813.2358 L 4411.9339,-1736.4856 L 4348.9708,-1736.4856 L 4348.9708,-1805.3579 L 4341.0922,-1815.2053 L 4348.9708,-1825.0528 L 4348.9708,-2014.0048 z M 4669.8188,-1840.8094 C 4596.9463,-1860.5043 4561.5567,-1878.2304 4561.5567,-1929.3766 C 4561.5567,-1980.584 4614.6724,-2014.0048 4659.9714,-2014.0048 L 4762.325,-2014.0048 L 4756.4165,-1994.3711 L 4677.6968,-1994.3711 C 4620.5809,-1994.3711 4591.0991,-1921.4986 4658.0019,-1901.803 C 4679.6663,-1895.9558 4691.4839,-1892.0168 4713.1483,-1886.1084 C 4744.5996,-1876.2609 4764.2945,-1854.5958 4764.2945,-1819.1443 C 4764.2945,-1769.9676 4724.904,-1736.4856 4671.7883,-1736.4856 L 4585.1906,-1734.5161 L 4575.3432,-1754.2117 L 4667.8493,-1754.2117 C 4718.9955,-1754.2117 4722.9345,-1825.0528 4669.8188,-1840.8094"
       id="path3092"
       style="fill:#000000;fill-opacity:1;fill-rule:nonzero;stroke:none" />
  </g>
</svg>
