<?xml version="1.0" encoding="UTF-8" standalone="no"?>
<!-- Created with Inkscape (http://www.inkscape.org/) -->
<svg
   xmlns:svg="http://www.w3.org/2000/svg"
   xmlns="http://www.w3.org/2000/svg"
   version="1.0"
   width="425.19684"
   height="425.19684"
   id="svg2720">
  <defs
     id="defs2722" />
  <g
     transform="translate(-4700.5677,2651.0869)"
     id="layer1">
    <g
       transform="matrix(57.131685,0,0,-57.131685,4913.109,-2462.8266)"
       id="g3046">
      <path
         d="M 0,0 C 0.435,0 0.788,0.353 0.788,0.788 C 0.788,1.224 0.435,1.577 0,1.577 C -0.435,1.577 -0.788,1.224 -0.788,0.788 C -0.788,0.353 -0.435,0 0,0 z M 0.005,-2.412 C 0.498,-2.412 0.898,-2.012 0.898,-1.518 C 0.898,-1.025 0.498,-0.625 0.005,-0.625 C -0.488,-0.625 -0.888,-1.025 -0.888,-1.518 C -0.888,-2.012 -0.488,-2.412 0.005,-2.412 z M -0.957,-0.231 C -1.463,-0.539 -1.674,-0.866 -1.674,-1.52 C -1.674,-2.448 -0.922,-3.135 0.005,-3.135 C 0.932,-3.135 1.684,-2.448 1.684,-1.52 C 1.684,-0.866 1.47,-0.538 0.965,-0.23 C 1.312,-0.024 1.534,0.315 1.534,0.788 C 1.534,1.621 0.847,2.295 0,2.295 C -0.847,2.295 -1.534,1.621 -1.534,0.788 C -1.534,0.314 -1.307,-0.026 -0.957,-0.231 z M -3.1,2.675 L 3.102,2.675 L 3.102,-3.527 L -3.1,-3.527 L -3.1,2.675 z"
         id="path3048"
         style="fill:#000000;fill-opacity:1;fill-rule:nonzero;stroke:none" />
    </g>
  </g>
</svg>
